<mxfile host="65bd71144e">
    <diagram id="sUUaPduqyuZYLTc3TDkt" name="1-AbstractFactory">
        <mxGraphModel dx="593" dy="540" grid="0" gridSize="10" guides="1" tooltips="1" connect="1" arrows="1" fold="1" page="1" pageScale="1" pageWidth="827" pageHeight="583" background="#ffffff" math="0" shadow="0">
            <root>
                <mxCell id="0"/>
                <mxCell id="1" parent="0"/>
                <mxCell id="35" value="" style="group;fontColor=#221616;labelBackgroundColor=none;strokeColor=none;fillColor=none;" parent="1" vertex="1" connectable="0">
                    <mxGeometry x="1" y="2" width="825" height="578" as="geometry"/>
                </mxCell>
                <mxCell id="15" value="&lt;span style=&quot;&quot;&gt;Abstract Factory&lt;/span&gt;" style="shape=umlFrame;whiteSpace=wrap;html=1;width=120;height=15;boundedLbl=1;verticalAlign=middle;align=left;spacingLeft=5;swimlaneLine=0;fontColor=#221616;shadow=0;fillColor=#f5f5f5;strokeColor=#666666;rounded=1;labelBackgroundColor=none;" parent="35" vertex="1">
                    <mxGeometry width="825.0000000000002" height="578" as="geometry"/>
                </mxCell>
                <mxCell id="36" value="«interface»&lt;br&gt;&lt;b&gt;IAbstractFactory&lt;/b&gt;" style="html=1;fillColor=#dfc3ca;fontColor=#221616;strokeColor=#6F0000;labelBackgroundColor=none;rounded=1;" parent="35" vertex="1">
                    <mxGeometry x="87.5" y="285" width="110" height="50" as="geometry"/>
                </mxCell>
                <mxCell id="38" value="«interface»&lt;br&gt;&lt;b&gt;IProductA&lt;/b&gt;" style="html=1;fillColor=#bfc0df;fontColor=#221616;strokeColor=#6F0000;labelBackgroundColor=none;rounded=1;" parent="35" vertex="1">
                    <mxGeometry x="452" y="359" width="110" height="50" as="geometry"/>
                </mxCell>
                <mxCell id="37" value="«interface»&lt;br&gt;&lt;b&gt;IProductB&lt;/b&gt;" style="html=1;fillColor=#e1ddad;fontColor=#221616;strokeColor=#6F0000;labelBackgroundColor=none;rounded=1;" parent="35" vertex="1">
                    <mxGeometry x="452" y="214" width="110" height="50" as="geometry"/>
                </mxCell>
                <mxCell id="39" value="Client" style="html=1;labelBackgroundColor=none;fillColor=#f5f5f5;gradientColor=#b3b3b3;strokeColor=#666666;fontColor=#221616;rounded=1;" parent="35" vertex="1">
                    <mxGeometry x="273" y="285" width="110" height="50" as="geometry"/>
                </mxCell>
                <mxCell id="41" value="Use" style="endArrow=open;endSize=12;dashed=1;html=1;strokeColor=#36393d;exitX=0;exitY=0.5;exitDx=0;exitDy=0;fillColor=#eeeeee;fontColor=#221616;labelBackgroundColor=none;" parent="35" source="39" target="36" edge="1">
                    <mxGeometry width="160" relative="1" as="geometry">
                        <mxPoint x="362" y="260" as="sourcePoint"/>
                        <mxPoint x="522" y="260" as="targetPoint"/>
                    </mxGeometry>
                </mxCell>
                <mxCell id="44" value="Use" style="endArrow=open;endSize=12;dashed=1;html=1;strokeColor=#36393d;fillColor=#eeeeee;entryX=0;entryY=1;entryDx=0;entryDy=0;exitX=1;exitY=0;exitDx=0;exitDy=0;fontColor=#221616;labelBackgroundColor=none;" parent="35" source="39" target="37" edge="1">
                    <mxGeometry width="160" relative="1" as="geometry">
                        <mxPoint x="642" y="185" as="sourcePoint"/>
                        <mxPoint x="221" y="258" as="targetPoint"/>
                    </mxGeometry>
                </mxCell>
                <mxCell id="45" value="Factory1" style="swimlane;fontStyle=1;align=center;verticalAlign=top;childLayout=stackLayout;horizontal=1;startSize=26;horizontalStack=0;resizeParent=1;resizeParentMax=0;resizeLast=0;collapsible=1;marginBottom=0;labelBackgroundColor=none;labelBorderColor=none;fillColor=#d5e8d4;strokeColor=#82b366;gradientColor=#97d077;fontColor=#221616;rounded=1;" parent="35" vertex="1">
                    <mxGeometry x="47" y="443" width="191" height="115" as="geometry"/>
                </mxCell>
                <mxCell id="46" value="..." style="text;strokeColor=none;fillColor=none;align=left;verticalAlign=top;spacingLeft=4;spacingRight=4;overflow=hidden;rotatable=0;points=[[0,0.5],[1,0.5]];portConstraint=eastwest;labelBackgroundColor=none;labelBorderColor=none;fontColor=#221616;" parent="45" vertex="1">
                    <mxGeometry y="26" width="191" height="26" as="geometry"/>
                </mxCell>
                <mxCell id="47" value="" style="line;strokeWidth=1;fillColor=none;align=left;verticalAlign=middle;spacingTop=-1;spacingLeft=3;spacingRight=3;rotatable=0;labelPosition=right;points=[];portConstraint=eastwest;strokeColor=inherit;fontColor=#221616;labelBackgroundColor=none;" parent="45" vertex="1">
                    <mxGeometry y="52" width="191" height="8" as="geometry"/>
                </mxCell>
                <mxCell id="48" value="+ CreateProductA1(): IProductA&#10;+ CreateProductB1(): IProductB" style="text;strokeColor=none;fillColor=none;align=left;verticalAlign=top;spacingLeft=4;spacingRight=4;overflow=hidden;rotatable=0;points=[[0,0.5],[1,0.5]];portConstraint=eastwest;fontColor=#221616;labelBackgroundColor=none;" parent="45" vertex="1">
                    <mxGeometry y="60" width="191" height="55" as="geometry"/>
                </mxCell>
                <mxCell id="43" value="Use" style="endArrow=open;endSize=12;dashed=1;html=1;strokeColor=#36393d;fillColor=#eeeeee;entryX=0;entryY=0;entryDx=0;entryDy=0;exitX=1;exitY=1;exitDx=0;exitDy=0;fontColor=#221616;labelBackgroundColor=none;" parent="35" source="39" target="38" edge="1">
                    <mxGeometry width="160" relative="1" as="geometry">
                        <mxPoint x="667" y="239" as="sourcePoint"/>
                        <mxPoint x="211" y="248" as="targetPoint"/>
                    </mxGeometry>
                </mxCell>
                <mxCell id="49" value="Factory2" style="swimlane;fontStyle=1;align=center;verticalAlign=top;childLayout=stackLayout;horizontal=1;startSize=26;horizontalStack=0;resizeParent=1;resizeParentMax=0;resizeLast=0;collapsible=1;marginBottom=0;labelBackgroundColor=none;labelBorderColor=none;fillColor=#fad7ac;strokeColor=#b46504;fontColor=#221616;rounded=1;" parent="35" vertex="1">
                    <mxGeometry x="47" y="62" width="191" height="115" as="geometry"/>
                </mxCell>
                <mxCell id="50" value="..." style="text;strokeColor=none;fillColor=none;align=left;verticalAlign=top;spacingLeft=4;spacingRight=4;overflow=hidden;rotatable=0;points=[[0,0.5],[1,0.5]];portConstraint=eastwest;labelBackgroundColor=none;labelBorderColor=none;fontColor=#221616;" parent="49" vertex="1">
                    <mxGeometry y="26" width="191" height="26" as="geometry"/>
                </mxCell>
                <mxCell id="51" value="" style="line;strokeWidth=1;fillColor=none;align=left;verticalAlign=middle;spacingTop=-1;spacingLeft=3;spacingRight=3;rotatable=0;labelPosition=right;points=[];portConstraint=eastwest;strokeColor=inherit;fontColor=#221616;labelBackgroundColor=none;" parent="49" vertex="1">
                    <mxGeometry y="52" width="191" height="8" as="geometry"/>
                </mxCell>
                <mxCell id="52" value="+ CreateProductA2(): IProductA&#10;+ CreateProductB2(): IProductB" style="text;strokeColor=none;fillColor=none;align=left;verticalAlign=top;spacingLeft=4;spacingRight=4;overflow=hidden;rotatable=0;points=[[0,0.5],[1,0.5]];portConstraint=eastwest;fontColor=#221616;labelBackgroundColor=none;" parent="49" vertex="1">
                    <mxGeometry y="60" width="191" height="55" as="geometry"/>
                </mxCell>
                <mxCell id="54" value="" style="endArrow=block;endSize=16;endFill=0;html=1;shadow=0;swimlaneLine=0;fontColor=#221616;labelBackgroundColor=none;fillColor=#ffe6cc;strokeColor=#d79b00;entryX=0.5;entryY=0;entryDx=0;entryDy=0;" parent="35" source="52" target="36" edge="1">
                    <mxGeometry width="160" relative="1" as="geometry">
                        <mxPoint x="223.85791366906483" y="197.5698110944528" as="sourcePoint"/>
                        <mxPoint x="266.591726618705" y="259.9700149925037" as="targetPoint"/>
                    </mxGeometry>
                </mxCell>
                <mxCell id="55" value="" style="endArrow=block;endSize=16;endFill=0;html=1;exitX=0.5;exitY=0;exitDx=0;exitDy=0;shadow=0;swimlaneLine=0;fontColor=#221616;labelBackgroundColor=none;fillColor=#d5e8d4;strokeColor=#82b366;entryX=0.5;entryY=1;entryDx=0;entryDy=0;gradientColor=#97d077;" parent="35" source="45" target="36" edge="1">
                    <mxGeometry width="160" relative="1" as="geometry">
                        <mxPoint x="107.80600000000004" y="186.12" as="sourcePoint"/>
                        <mxPoint x="136.52925016160316" y="223" as="targetPoint"/>
                    </mxGeometry>
                </mxCell>
                <mxCell id="56" value="ProductB1" style="html=1;labelBackgroundColor=none;labelBorderColor=none;fillColor=#d5e8d4;gradientColor=#97d077;strokeColor=#82b366;fontColor=#221616;rounded=1;" parent="35" vertex="1">
                    <mxGeometry x="670" y="214" width="110" height="50" as="geometry"/>
                </mxCell>
                <mxCell id="57" value="ProductA1" style="html=1;labelBackgroundColor=none;labelBorderColor=none;fillColor=#d5e8d4;gradientColor=#97d077;strokeColor=#82b366;fontColor=#221616;rounded=1;" parent="35" vertex="1">
                    <mxGeometry x="670" y="503" width="110" height="50" as="geometry"/>
                </mxCell>
                <mxCell id="58" value="ProductB2" style="html=1;labelBackgroundColor=none;labelBorderColor=none;fillColor=#ffcc99;strokeColor=#36393d;fontColor=#221616;rounded=1;" parent="35" vertex="1">
                    <mxGeometry x="670" y="76" width="110" height="50" as="geometry"/>
                </mxCell>
                <mxCell id="59" value="ProductA2" style="html=1;labelBackgroundColor=none;labelBorderColor=none;fillColor=#ffcc99;strokeColor=#36393d;fontColor=#221616;rounded=1;" parent="35" vertex="1">
                    <mxGeometry x="670" y="359" width="110" height="50" as="geometry"/>
                </mxCell>
                <mxCell id="60" value="" style="endArrow=block;dashed=1;endFill=0;endSize=12;html=1;strokeColor=#666666;fontColor=#221616;fillColor=#f5f5f5;gradientColor=#b3b3b3;entryX=1;entryY=0.5;entryDx=0;entryDy=0;exitX=0;exitY=0.5;exitDx=0;exitDy=0;labelBackgroundColor=none;" parent="35" source="56" target="37" edge="1">
                    <mxGeometry width="160" relative="1" as="geometry">
                        <mxPoint x="358" y="143" as="sourcePoint"/>
                        <mxPoint x="518" y="143" as="targetPoint"/>
                    </mxGeometry>
                </mxCell>
                <mxCell id="61" value="" style="endArrow=block;dashed=1;endFill=0;endSize=12;html=1;strokeColor=#666666;fontColor=#221616;fillColor=#f5f5f5;gradientColor=#b3b3b3;exitX=0;exitY=0.5;exitDx=0;exitDy=0;entryX=1;entryY=0.5;entryDx=0;entryDy=0;labelBackgroundColor=none;" parent="35" source="59" target="38" edge="1">
                    <mxGeometry width="160" relative="1" as="geometry">
                        <mxPoint x="368" y="153" as="sourcePoint"/>
                        <mxPoint x="528" y="153" as="targetPoint"/>
                    </mxGeometry>
                </mxCell>
                <mxCell id="62" value="" style="endArrow=block;dashed=1;endFill=0;endSize=12;html=1;strokeColor=#666666;fontColor=#221616;fillColor=#f5f5f5;gradientColor=#b3b3b3;entryX=1;entryY=1;entryDx=0;entryDy=0;exitX=0.5;exitY=0;exitDx=0;exitDy=0;labelBackgroundColor=none;" parent="35" source="57" target="38" edge="1">
                    <mxGeometry width="160" relative="1" as="geometry">
                        <mxPoint x="368" y="153" as="sourcePoint"/>
                        <mxPoint x="528" y="153" as="targetPoint"/>
                    </mxGeometry>
                </mxCell>
                <mxCell id="63" value="" style="endArrow=block;dashed=1;endFill=0;endSize=12;html=1;strokeColor=#666666;fontColor=#221616;fillColor=#f5f5f5;gradientColor=#b3b3b3;entryX=1;entryY=0;entryDx=0;entryDy=0;exitX=0.5;exitY=1;exitDx=0;exitDy=0;labelBackgroundColor=none;" parent="35" source="58" target="37" edge="1">
                    <mxGeometry width="160" relative="1" as="geometry">
                        <mxPoint x="680" y="451" as="sourcePoint"/>
                        <mxPoint x="559" y="283" as="targetPoint"/>
                    </mxGeometry>
                </mxCell>
                <mxCell id="64" value="Use" style="endArrow=open;endSize=12;dashed=1;html=1;strokeColor=#36393d;fillColor=#ffcc99;entryX=0;entryY=0.5;entryDx=0;entryDy=0;exitX=1;exitY=0.5;exitDx=0;exitDy=0;fontColor=#221616;labelBackgroundColor=none;" parent="35" source="50" target="58" edge="1">
                    <mxGeometry width="160" relative="1" as="geometry">
                        <mxPoint x="393" y="295" as="sourcePoint"/>
                        <mxPoint x="462" y="278" as="targetPoint"/>
                    </mxGeometry>
                </mxCell>
                <mxCell id="65" value="Use" style="endArrow=open;endSize=12;dashed=1;html=1;strokeColor=#36393d;fillColor=#cdeb8b;entryX=0;entryY=0.5;entryDx=0;entryDy=0;fontColor=#221616;labelBackgroundColor=none;" parent="35" source="48" target="57" edge="1">
                    <mxGeometry width="160" relative="1" as="geometry">
                        <mxPoint x="248" y="159.5" as="sourcePoint"/>
                        <mxPoint x="680" y="97" as="targetPoint"/>
                    </mxGeometry>
                </mxCell>
            </root>
        </mxGraphModel>
    </diagram>
</mxfile>